<svg width="2518" height="831" viewBox="0 0 2518 831" fill="none" xmlns="http://www.w3.org/2000/svg">
<path d="M1120.65 419.05C1120.65 304.1 1036.5 223.25 928.15 223.25C820.35 223.25 735.65 304.1 735.65 419.05C735.65 534 820.35 614.85 928.15 614.85C1036.5 614.85 1120.65 534 1120.65 419.05ZM786.8 419.05C786.8 325 847.3 266.7 928.15 266.7C1009 266.7 1069.5 325 1069.5 419.05C1069.5 512.55 1009 571.4 928.15 571.4C847.3 571.4 786.8 512.55 786.8 419.05ZM1404.52 611H1461.17L1343.47 419.6L1461.72 227.65H1405.62L1317.62 377.8L1225.22 227.65H1169.12L1286.82 419.6L1169.67 611H1225.22L1312.67 461.4L1404.52 611ZM1504.67 268.35H1609.72V611H1659.77V268.35H1764.27V227.65H1504.67V268.35ZM1825.88 611H1875.93V227.65H1825.88V611ZM1961.23 611H2011.28V438.3H2146.58V397.6H2011.28V268.35H2177.93V227.65H1961.23V611ZM2331.88 466.35V611H2381.93V466.35L2506.78 227.65H2451.23L2356.63 421.8L2262.03 227.65H2206.48L2331.88 466.35Z" fill="#1A1A1A"/>
<path d="M1124.65 419.05C1124.65 301.891 1038.71 219.25 928.15 219.25V227.25C1034.29 227.25 1116.65 306.309 1116.65 419.05H1124.65ZM928.15 219.25C818.148 219.25 731.65 301.883 731.65 419.05H739.65C739.65 306.317 822.552 227.25 928.15 227.25V219.25ZM731.65 419.05C731.65 536.217 818.148 618.85 928.15 618.85V610.85C822.552 610.85 739.65 531.783 739.65 419.05H731.65ZM928.15 618.85C1038.71 618.85 1124.65 536.209 1124.65 419.05H1116.65C1116.65 531.791 1034.29 610.85 928.15 610.85V618.85ZM790.8 419.05C790.8 372.898 805.629 335.853 830.044 310.374C854.455 284.899 888.716 270.7 928.15 270.7V262.7C886.734 262.7 850.32 277.651 824.268 304.839C798.221 332.022 782.8 371.152 782.8 419.05H790.8ZM928.15 270.7C967.584 270.7 1001.85 284.899 1026.26 310.374C1050.67 335.853 1065.5 372.898 1065.5 419.05H1073.5C1073.5 371.152 1058.08 332.022 1032.03 304.839C1005.98 277.651 969.566 262.7 928.15 262.7V270.7ZM1065.5 419.05C1065.5 464.923 1050.67 501.971 1026.25 527.524C1001.84 553.071 967.573 567.4 928.15 567.4V575.4C969.577 575.4 1005.99 560.304 1032.04 533.051C1058.08 505.804 1073.5 466.677 1073.5 419.05H1065.5ZM928.15 567.4C888.727 567.4 854.464 553.071 830.048 527.524C805.627 501.971 790.8 464.923 790.8 419.05H782.8C782.8 466.677 798.223 505.804 824.265 533.051C850.311 560.304 886.723 575.4 928.15 575.4V567.4ZM1404.52 611L1401.11 613.093L1402.29 615H1404.52V611ZM1461.17 611V615H1468.33L1464.58 608.905L1461.17 611ZM1343.47 419.6L1340.07 417.502L1338.78 419.598L1340.07 421.695L1343.47 419.6ZM1461.72 227.65L1465.13 229.748L1468.89 223.65H1461.72V227.65ZM1405.62 227.65V223.65H1403.33L1402.17 225.627L1405.62 227.65ZM1317.62 377.8L1314.22 379.896L1317.71 385.568L1321.07 379.823L1317.62 377.8ZM1225.22 227.65L1228.63 225.554L1227.46 223.65H1225.22V227.65ZM1169.12 227.65V223.65H1161.98L1165.71 229.741L1169.12 227.65ZM1286.82 419.6L1290.23 421.688L1291.51 419.598L1290.23 417.509L1286.82 419.6ZM1169.67 611L1166.26 608.912L1162.53 615H1169.67V611ZM1225.22 611V615H1227.52L1228.68 613.019L1225.22 611ZM1312.67 461.4L1316.08 459.307L1312.59 453.618L1309.22 459.381L1312.67 461.4ZM1404.52 615H1461.17V607H1404.52V615ZM1464.58 608.905L1346.88 417.505L1340.07 421.695L1457.77 613.095L1464.58 608.905ZM1346.88 421.698L1465.13 229.748L1458.32 225.552L1340.07 417.502L1346.88 421.698ZM1461.72 223.65H1405.62V231.65H1461.72V223.65ZM1402.17 225.627L1314.17 375.777L1321.07 379.823L1409.07 229.673L1402.17 225.627ZM1321.03 375.704L1228.63 225.554L1221.82 229.746L1314.22 379.896L1321.03 375.704ZM1225.22 223.65H1169.12V231.65H1225.22V223.65ZM1165.71 229.741L1283.41 421.691L1290.23 417.509L1172.53 225.559L1165.71 229.741ZM1283.41 417.512L1166.26 608.912L1173.08 613.088L1290.23 421.688L1283.41 417.512ZM1169.67 615H1225.22V607H1169.67V615ZM1228.68 613.019L1316.13 463.419L1309.22 459.381L1221.77 608.981L1228.68 613.019ZM1309.26 463.493L1401.11 613.093L1407.93 608.907L1316.08 459.307L1309.26 463.493ZM1504.67 268.35H1500.67V272.35H1504.67V268.35ZM1609.72 268.35H1613.72V264.35H1609.72V268.35ZM1609.72 611H1605.72V615H1609.72V611ZM1659.77 611V615H1663.77V611H1659.77ZM1659.77 268.35V264.35H1655.77V268.35H1659.77ZM1764.27 268.35V272.35H1768.27V268.35H1764.27ZM1764.27 227.65H1768.27V223.65H1764.27V227.65ZM1504.67 227.65V223.65H1500.67V227.65H1504.67ZM1504.67 272.35H1609.72V264.35H1504.67V272.35ZM1605.72 268.35V611H1613.72V268.35H1605.72ZM1609.72 615H1659.77V607H1609.72V615ZM1663.77 611V268.35H1655.77V611H1663.77ZM1659.77 272.35H1764.27V264.35H1659.77V272.35ZM1768.27 268.35V227.65H1760.27V268.35H1768.27ZM1764.27 223.65H1504.67V231.65H1764.27V223.65ZM1500.67 227.65V268.35H1508.67V227.65H1500.67ZM1825.88 611H1821.88V615H1825.88V611ZM1875.93 611V615H1879.93V611H1875.93ZM1875.93 227.65H1879.93V223.65H1875.93V227.65ZM1825.88 227.65V223.65H1821.88V227.65H1825.88ZM1825.88 615H1875.93V607H1825.88V615ZM1879.93 611V227.65H1871.93V611H1879.93ZM1875.93 223.65H1825.88V231.65H1875.93V223.65ZM1821.88 227.65V611H1829.88V227.65H1821.88ZM1961.23 611H1957.23V615H1961.23V611ZM2011.28 611V615H2015.28V611H2011.28ZM2011.28 438.3V434.3H2007.28V438.3H2011.28ZM2146.58 438.3V442.3H2150.58V438.3H2146.58ZM2146.58 397.6H2150.58V393.6H2146.58V397.6ZM2011.28 397.6H2007.28V401.6H2011.28V397.6ZM2011.28 268.35V264.35H2007.28V268.35H2011.28ZM2177.93 268.35V272.35H2181.93V268.35H2177.93ZM2177.93 227.65H2181.93V223.65H2177.93V227.65ZM1961.23 227.65V223.65H1957.23V227.65H1961.23ZM1961.23 615H2011.28V607H1961.23V615ZM2015.28 611V438.3H2007.28V611H2015.28ZM2011.28 442.3H2146.58V434.3H2011.28V442.3ZM2150.58 438.3V397.6H2142.58V438.3H2150.58ZM2146.58 393.6H2011.28V401.6H2146.58V393.6ZM2015.28 397.6V268.35H2007.28V397.6H2015.28ZM2011.28 272.35H2177.93V264.35H2011.28V272.35ZM2181.93 268.35V227.65H2173.93V268.35H2181.93ZM2177.93 223.65H1961.23V231.65H2177.93V223.65ZM1957.23 227.65V611H1965.23V227.65H1957.23ZM2331.88 466.35H2335.88V465.363L2335.42 464.49L2331.88 466.35ZM2331.88 611H2327.88V615H2331.88V611ZM2381.93 611V615H2385.93V611H2381.93ZM2381.93 466.35L2378.39 464.496L2377.93 465.367V466.35H2381.93ZM2506.78 227.65L2510.33 229.504L2513.39 223.65H2506.78V227.65ZM2451.23 227.65V223.65H2448.73L2447.64 225.898L2451.23 227.65ZM2356.63 421.8L2353.04 423.552L2356.63 430.932L2360.23 423.552L2356.63 421.8ZM2262.03 227.65L2265.63 225.898L2264.53 223.65H2262.03V227.65ZM2206.48 227.65V223.65H2199.86L2202.94 229.51L2206.48 227.65ZM2327.88 466.35V611H2335.88V466.35H2327.88ZM2331.88 615H2381.93V607H2331.88V615ZM2385.93 611V466.35H2377.93V611H2385.93ZM2385.48 468.204L2510.33 229.504L2503.24 225.796L2378.39 464.496L2385.48 468.204ZM2506.78 223.65H2451.23V231.65H2506.78V223.65ZM2447.64 225.898L2353.04 420.048L2360.23 423.552L2454.83 229.402L2447.64 225.898ZM2360.23 420.048L2265.63 225.898L2258.44 229.402L2353.04 423.552L2360.23 420.048ZM2262.03 223.65H2206.48V231.65H2262.03V223.65ZM2202.94 229.51L2328.34 468.21L2335.42 464.49L2210.02 225.79L2202.94 229.51Z" fill="#EBF8EC"/>
<path d="M184.8 504.9C184.8 536.8 168.85 564.3 129.25 564.3C89.65 564.3 73.15 536.25 72.6 501.05H22.55C22.55 568.15 65.45 608.85 129.25 608.85C192.5 608.85 235.4 568.7 235.4 504.9V221.65H184.8V504.9Z" fill="#1A1A1A"/>
<path d="M72.6 501.05L76.5996 500.988L76.5381 497.05H72.6V501.05ZM22.55 501.05V497.05H18.55V501.05H22.55ZM235.4 221.65H239.4V217.65H235.4V221.65ZM184.8 221.65V217.65H180.8V221.65H184.8ZM180.8 504.9C180.8 520.248 176.957 534.091 168.786 544.021C160.719 553.826 148.039 560.3 129.25 560.3V568.3C150.061 568.3 165.156 561.024 174.964 549.104C184.668 537.309 188.8 521.452 188.8 504.9H180.8ZM129.25 560.3C110.494 560.3 97.6875 553.714 89.403 543.374C81.001 532.887 76.8663 518.053 76.5996 500.988L68.6006 501.112C68.8839 519.247 73.2742 536.038 83.1597 548.376C93.1627 560.861 108.406 568.3 129.25 568.3V560.3ZM72.6 497.05H22.55V505.05H72.6V497.05ZM18.55 501.05C18.55 535.471 29.5725 563.511 49.1571 582.951C68.7348 602.385 96.4901 612.85 129.25 612.85V604.85C98.2099 604.85 72.6153 594.965 54.793 577.274C36.9776 559.589 26.55 533.729 26.55 501.05H18.55ZM129.25 612.85C161.727 612.85 189.323 602.529 208.824 583.676C228.341 564.807 239.4 537.727 239.4 504.9H231.4C231.4 535.873 221.009 560.768 203.263 577.924C185.502 595.096 160.023 604.85 129.25 604.85V612.85ZM239.4 504.9V221.65H231.4V504.9H239.4ZM235.4 217.65H184.8V225.65H235.4V217.65ZM180.8 221.65V504.9H188.8V221.65H180.8Z" fill="#EBF8EC"/>
<path d="M692 418C692 455.578 680.857 492.313 659.979 523.558C639.102 554.804 609.428 579.156 574.71 593.537C539.992 607.918 501.789 611.68 464.933 604.349C428.076 597.018 394.222 578.922 367.65 552.35C341.078 525.778 322.982 491.924 315.651 455.067C308.32 418.211 312.082 380.008 326.463 345.29C340.844 310.572 365.196 280.898 396.442 260.021C427.687 239.143 464.422 228 502 228V323C483.211 323 464.843 328.572 449.221 339.01C433.598 349.449 421.422 364.286 414.231 381.645C407.041 399.004 405.16 418.105 408.825 436.534C412.491 454.962 421.539 471.889 434.825 485.175C448.111 498.461 465.038 507.509 483.466 511.175C501.895 514.84 520.996 512.959 538.355 505.769C555.714 498.578 570.551 486.402 580.99 470.779C591.428 455.157 597 436.789 597 418H692Z" fill="#1DCF5D"/>
<path d="M438.5 565C411 557.667 353.8 528.7 345 471.5C356.833 490.667 392.1 536.2 438.5 565Z" fill="white"/>
<path d="M437 542C417 536.667 375.4 515.6 369 474C377.606 487.939 403.255 521.055 437 542Z" fill="white"/>
<path d="M442 522C427.294 518.078 396.706 502.588 392 472C398.328 482.25 417.187 506.599 442 522Z" fill="white"/>
<mask id="mask0_177_2" style="mask-type:alpha" maskUnits="userSpaceOnUse" x="506" y="309" width="107" height="106">
<path d="M613 309H506V415H613V309Z" fill="white"/>
<path d="M509.802 313.188C509.868 312.086 510.816 311.244 511.917 311.33C537.305 313.324 561.187 324.271 579.281 342.253C597.374 360.236 608.467 384.051 610.616 409.427C610.71 410.527 609.873 411.48 608.771 411.553L591.309 412.705C590.207 412.778 589.257 411.943 589.158 410.843C587.358 390.692 578.505 371.795 564.125 357.503C549.745 343.211 530.794 334.474 510.632 332.796C509.531 332.705 508.69 331.76 508.756 330.657L509.802 313.188Z" fill="black"/>
</mask>
<g mask="url(#mask0_177_2)">
<path d="M509.802 313.188C509.868 312.086 510.816 311.244 511.917 311.33C537.305 313.324 561.187 324.271 579.281 342.253C597.374 360.236 608.467 384.051 610.616 409.427C610.71 410.527 609.873 411.48 608.771 411.553L591.309 412.705C590.207 412.778 589.257 411.943 589.158 410.843C587.358 390.692 578.505 371.795 564.125 357.503C549.745 343.211 530.794 334.474 510.632 332.796C509.531 332.705 508.69 331.76 508.756 330.657L509.802 313.188Z" fill="#1A1A1A"/>
<path d="M509.802 313.188C509.868 312.086 510.816 311.244 511.917 311.33C537.305 313.324 561.187 324.271 579.281 342.253C597.374 360.236 608.467 384.051 610.616 409.427C610.71 410.527 609.873 411.48 608.771 411.553L591.309 412.705C590.207 412.778 589.257 411.943 589.158 410.843C587.358 390.692 578.505 371.795 564.125 357.503C549.745 343.211 530.794 334.474 510.632 332.796C509.531 332.705 508.69 331.76 508.756 330.657L509.802 313.188Z" stroke="#1DCF5D" stroke-width="4" stroke-linejoin="round"/>
</g>
<mask id="mask1_177_2" style="mask-type:alpha" maskUnits="userSpaceOnUse" x="504" y="338" width="80" height="79">
<path d="M584 338H504V417H584V338Z" fill="white"/>
<path d="M507.599 342.137C507.665 341.035 508.613 340.192 509.714 340.286C528.174 341.86 545.519 349.877 558.69 362.968C571.861 376.058 579.984 393.354 581.672 411.804C581.772 412.904 580.935 413.857 579.833 413.93L568.058 414.707C566.956 414.779 566.007 413.944 565.9 412.845C564.47 398.234 557.994 384.552 547.552 374.174C537.11 363.796 523.389 357.404 508.77 356.064C507.67 355.963 506.829 355.019 506.895 353.916L507.599 342.137Z" fill="black"/>
</mask>
<g mask="url(#mask1_177_2)">
<path d="M507.599 342.137C507.665 341.035 508.613 340.192 509.714 340.286C528.174 341.86 545.519 349.877 558.69 362.968C571.861 376.058 579.984 393.354 581.672 411.804C581.772 412.904 580.935 413.857 579.833 413.93L568.058 414.707C566.956 414.779 566.007 413.944 565.9 412.845C564.47 398.234 557.994 384.552 547.552 374.174C537.11 363.796 523.389 357.404 508.77 356.064C507.67 355.963 506.829 355.019 506.895 353.916L507.599 342.137Z" fill="#1A1A1A"/>
<path d="M507.599 342.137C507.665 341.035 508.613 340.192 509.714 340.286C528.174 341.86 545.519 349.877 558.69 362.968C571.861 376.058 579.984 393.354 581.672 411.804C581.772 412.904 580.935 413.857 579.833 413.93L568.058 414.707C566.956 414.779 566.007 413.944 565.9 412.845C564.47 398.234 557.994 384.552 547.552 374.174C537.11 363.796 523.389 357.404 508.77 356.064C507.67 355.963 506.829 355.019 506.895 353.916L507.599 342.137Z" stroke="#1DCF5D" stroke-width="4" stroke-linejoin="round"/>
</g>
<mask id="mask2_177_2" style="mask-type:alpha" maskUnits="userSpaceOnUse" x="502" y="361" width="57" height="56">
<path d="M559 361H502V417H559V361Z" fill="white"/>
<path d="M505.166 365.095C505.232 363.992 506.18 363.148 507.279 363.254C519.905 364.471 531.746 370.02 540.772 378.99C549.797 387.961 555.418 399.767 556.713 412.385C556.825 413.484 555.987 414.437 554.885 414.51L547.9 414.971C546.798 415.044 545.85 414.208 545.728 413.111C544.616 403.166 540.143 393.874 533.017 386.792C525.892 379.71 516.573 375.294 506.621 374.243C505.523 374.127 504.682 373.185 504.748 372.082L505.166 365.095Z" fill="black"/>
</mask>
<g mask="url(#mask2_177_2)">
<path d="M505.166 365.095C505.232 363.992 506.18 363.148 507.279 363.254C519.905 364.471 531.746 370.02 540.772 378.99C549.797 387.961 555.418 399.767 556.713 412.385C556.825 413.484 555.987 414.437 554.885 414.51L547.9 414.971C546.798 415.044 545.85 414.208 545.728 413.111C544.616 403.166 540.143 393.874 533.017 386.792C525.892 379.71 516.573 375.294 506.621 374.243C505.523 374.127 504.682 373.185 504.748 372.082L505.166 365.095Z" fill="#1A1A1A"/>
<path d="M505.166 365.095C505.232 363.992 506.18 363.148 507.279 363.254C519.905 364.471 531.746 370.02 540.772 378.99C549.797 387.961 555.418 399.767 556.713 412.385C556.825 413.484 555.987 414.437 554.885 414.51L547.9 414.971C546.798 415.044 545.85 414.208 545.728 413.111C544.616 403.166 540.143 393.874 533.017 386.792C525.892 379.71 516.573 375.294 506.621 374.243C505.523 374.127 504.682 373.185 504.748 372.082L505.166 365.095Z" stroke="#1DCF5D" stroke-width="4" stroke-linejoin="round"/>
</g>
<mask id="mask3_177_2" style="mask-type:alpha" maskUnits="userSpaceOnUse" x="507" y="272" width="141" height="140">
<path d="M648 272H507V412H648V272Z" fill="white"/>
<path d="M510.952 276.253C511.018 275.15 511.966 274.308 513.068 274.39C547.207 276.91 579.347 291.557 603.658 315.72C627.97 339.882 642.813 371.932 645.543 406.055C645.631 407.156 644.795 408.11 643.693 408.182L619.046 409.809C617.944 409.882 616.994 409.046 616.902 407.946C614.635 380.796 602.781 355.312 583.427 336.076C564.073 316.84 538.516 305.142 511.353 303.042C510.252 302.957 509.411 302.011 509.477 300.909L510.952 276.253Z" fill="black"/>
</mask>
<g mask="url(#mask3_177_2)">
<path d="M510.952 276.253C511.018 275.15 511.966 274.308 513.068 274.39C547.207 276.91 579.347 291.557 603.658 315.72C627.97 339.882 642.813 371.932 645.543 406.055C645.631 407.156 644.795 408.11 643.693 408.182L619.046 409.809C617.944 409.882 616.994 409.046 616.902 407.946C614.635 380.796 602.781 355.312 583.427 336.076C564.073 316.84 538.516 305.142 511.353 303.042C510.252 302.957 509.411 302.011 509.477 300.909L510.952 276.253Z" fill="#1A1A1A"/>
<path d="M510.952 276.253C511.018 275.15 511.966 274.308 513.068 274.39C547.207 276.91 579.347 291.557 603.658 315.72C627.97 339.882 642.813 371.932 645.543 406.055C645.631 407.156 644.795 408.11 643.693 408.182L619.046 409.809C617.944 409.882 616.994 409.046 616.902 407.946C614.635 380.796 602.781 355.312 583.427 336.076C564.073 316.84 538.516 305.142 511.353 303.042C510.252 302.957 509.411 302.011 509.477 300.909L510.952 276.253Z" stroke="#1DCF5D" stroke-width="4" stroke-linejoin="round"/>
</g>
<mask id="mask4_177_2" style="mask-type:alpha" maskUnits="userSpaceOnUse" x="510" y="228" width="183" height="182">
<path d="M693 228H510V410H693V228Z" fill="white"/>
<path d="M514.58 232.331C514.646 231.229 515.595 230.387 516.697 230.465C561.532 233.628 603.765 252.796 635.676 284.512C667.586 316.227 687.013 358.343 690.451 403.157C690.535 404.259 689.7 405.212 688.597 405.285L655.17 407.491C654.068 407.564 653.117 406.728 653.029 405.627C650.195 369.924 634.674 336.388 609.241 311.11C583.807 285.831 550.176 270.516 514.456 267.901C513.355 267.82 512.513 266.874 512.579 265.771L514.58 232.331Z" fill="black"/>
</mask>
<g mask="url(#mask4_177_2)">
<path d="M514.58 232.331C514.646 231.229 515.595 230.387 516.697 230.465C561.532 233.628 603.765 252.796 635.676 284.512C667.586 316.227 687.013 358.343 690.451 403.157C690.535 404.259 689.7 405.212 688.597 405.285L655.17 407.491C654.068 407.564 653.117 406.728 653.029 405.627C650.195 369.924 634.674 336.388 609.241 311.11C583.807 285.831 550.176 270.516 514.456 267.901C513.355 267.82 512.513 266.874 512.579 265.771L514.58 232.331Z" fill="#1A1A1A"/>
<path d="M514.58 232.331C514.646 231.229 515.595 230.387 516.697 230.465C561.532 233.628 603.765 252.796 635.676 284.512C667.586 316.227 687.013 358.343 690.451 403.157C690.535 404.259 689.7 405.212 688.597 405.285L655.17 407.491C654.068 407.564 653.117 406.728 653.029 405.627C650.195 369.924 634.674 336.388 609.241 311.11C583.807 285.831 550.176 270.516 514.456 267.901C513.355 267.82 512.513 266.874 512.579 265.771L514.58 232.331Z" stroke="#1DCF5D" stroke-width="4" stroke-linejoin="round"/>
<path d="M502 444C516.359 444 528 432.359 528 418C528 403.641 516.359 392 502 392C487.641 392 476 403.641 476 418C476 432.359 487.641 444 502 444Z" fill="#1A1A1A" stroke="#1DCF5D" stroke-width="2" stroke-linejoin="round"/>
</g>
</svg>
